<svg xmlns="http://www.w3.org/2000/svg" width="45" height="40" viewBox="0 0 45 40"><defs><mask id="x7o5b" width="2" height="2" x="-1" y="-1"><path fill="#fff" d="M2 2h40v35H2z"/><path d="M2 2h40v35H2z"/></mask><filter id="x7o5a" width="66.5" height="61.9" x="-11" y="-11" filterUnits="userSpaceOnUse"><feOffset dx=".5" dy=".9" in="SourceGraphic" result="FeOffset1023Out"/><feGaussianBlur in="FeOffset1023Out" result="FeGaussianBlur1024Out" stdDeviation="1.2 1.2"/></filter></defs><g><g><g filter="url(#x7o5a)"><path fill="none" d="M2 2h40v35H2z" mask="url(&quot;#x7o5b&quot;)"/><path fill="#d5d5d5" fill-opacity=".75" d="M2 2h40v35H2z"/></g><path fill="#212121" d="M2 2h40v35H2z"/></g><g><path fill="#fff" d="M23.94 14.67l3.253 3.27-8.232 8.28-3.25-3.271zm5.72.79l-1.62 1.63-3.252-3.27 1.39-1.398a1.433 1.433 0 0 1 2.032 0l1.45 1.459a1.12 1.12 0 0 1 0 1.58zm-14.83 8.374l3.25 3.271-3.623.884a.371.371 0 0 1-.448-.443z"/></g></g></svg>