<svg xmlns="http://www.w3.org/2000/svg" width="16" height="12" viewBox="0 0 16 12"><g><g><path fill="#212121" d="M6.286 8.728a9.397 9.397 0 0 1-1.572-.137 7.68 7.68 0 0 1-2.482 1.091c-.214.052-.47.097-.768.137h-.026a.285.285 0 0 1-.184-.069.28.28 0 0 1-.102-.178.167.167 0 0 1-.01-.056.32.32 0 0 1 .005-.055.178.178 0 0 1 .018-.051l.023-.043.03-.046c.022-.032.034-.046.036-.043.004.003.017-.011.04-.043.025-.031.037-.044.037-.038.03-.034.098-.105.205-.213a3.39 3.39 0 0 0 .232-.252l.2-.246c.087-.105.162-.215.224-.328.063-.114.124-.24.183-.376-.738-.409-1.318-.912-1.74-1.508C.211 5.677 0 5.04 0 4.364c0-.789.28-1.519.84-2.19.559-.67 1.322-1.2 2.29-1.589.967-.39 2.019-.584 3.156-.584s2.189.195 3.156.584c.967.39 1.73.919 2.29 1.59.56.67.84 1.4.84 2.19s-.28 1.52-.84 2.19c-.56.67-1.323 1.2-2.29 1.59-.967.388-2.02.583-3.156.583zM4.92 7.518c.464.08.92.12 1.366.12a7.24 7.24 0 0 0 2.553-.444c.792-.295 1.421-.696 1.889-1.202.467-.505.7-1.048.7-1.627 0-.58-.233-1.122-.7-1.628-.468-.506-1.097-.906-1.889-1.202a7.248 7.248 0 0 0-2.553-.443c-.911 0-1.762.148-2.554.443-.791.296-1.42.696-1.888 1.202-.467.506-.701 1.048-.701 1.628 0 .466.158.915.473 1.346.316.432.76.807 1.33 1.125l.867.477-.313.717c.203-.114.387-.225.554-.333l.393-.264zm8.705 2.446c.06.137.12.261.183.375.063.114.137.223.224.328.086.106.153.188.2.248.048.06.125.143.233.25a5.843 5.843 0 0 1 .28.295c.01.008.021.023.036.042a.42.42 0 0 1 .032.047l.022.043.018.05c.011.035.013.053.004.056-.009.003-.012.022-.009.056a.312.312 0 0 1-.116.187.277.277 0 0 1-.196.06 7.646 7.646 0 0 1-.768-.137 7.682 7.682 0 0 1-2.482-1.09c-.536.09-1.06.136-1.572.136-1.613 0-3.018-.375-4.214-1.125a9.852 9.852 0 0 0 3.544-.35 8.066 8.066 0 0 0 2.358-1.1c.744-.522 1.315-1.124 1.714-1.806a4.218 4.218 0 0 0 .393-3.46c.768.403 1.375.91 1.821 1.517.447.608.67 1.261.67 1.96 0 .682-.211 1.32-.634 1.913-.422.594-1.003 1.096-1.74 1.505z"/></g></g></svg>